<svg width="383" height="102" viewBox="0 0 383 102" xmlns="http://www.w3.org/2000/svg">
  <title>Carson Wealth</title>
  <g fill="none" fill-rule="evenodd">
    <polygon fill="#0D304A" points="0 67.8795 29.397 50.9075 0 33.9355"/>
    <polygon fill="#D6B556" points="0.0081 67.8822 58.7861 101.8232 58.7861 67.8822 29.3851 50.9122"/>
    <polygon fill="#EBD48D" points="58.7862 0.0006 0.0082 33.9416 29.3852 50.9116 58.7862 33.9416"/>
    <g transform="translate(103 34.823)">
      <path fill="#0D2F49" d="M180.2069 21.9622c0 5.855-5.559 9.929-16.081 9.929-7.511 0-13.62-2.122-18.16-5.983l3.903-4.625c3.65 3.352 8.359 4.922 14.426 4.922 6.025 0 9.08-1.145 9.08-3.606s-3.055-3.14-9.886-3.734c-8.486-.721-16.378-2.589-16.378-8.953 0-6.195 6.619-9.589 15.784-9.589 6.492 0 12.092 1.612 15.869 4.54l-3.734 4.709c-3.267-2.503-7.298-3.521-12.135-3.564-4.031-.042-8.953.679-8.953 3.395 0 2.546 4.244 2.8 10.141 3.267 9.462.764 16.124 2.758 16.124 9.292"/>
      <path fill="#0D2F49" d="M224.08 16.1068c0-6.364-4.625-9.928-11.966-9.928-7.34 0-11.965 3.564-11.965 9.928 0 6.365 4.582 9.928 11.965 9.928 7.341 0 11.966-3.563 11.966-9.928m-30.847 0c0-9.928 7.298-15.784 18.881-15.784 11.584 0 18.882 5.856 18.882 15.784 0 9.929-7.298 15.783-18.882 15.783-11.583 0-18.881-5.854-18.881-15.783"/>
      <polygon fill="#0D2F49" points="279.414 1.2567 279.414 30.9577 273.474 30.9577 252.174 9.4877 252.174 30.9577 245.598 30.9577 245.598 1.2567 252.81 1.2567 272.837 21.6227 272.837 1.2567"/>
      <path fill="#0D2F49" d="M59.4589 19.1629h12.279l-6.139-10.633-6.14 10.633Zm8.875-17.905 17.142 29.696h-6.929l-3.628-6.277h-18.643l-3.627 6.277h-6.929l17.151-29.696h5.462Z"/>
      <path fill="#0D2F49" d="M105.0273 6.9383v8.366h12.979c3.815 0 6.364-.766 6.364-4.159 0-3.394-2.549-4.207-6.364-4.207h-12.979Zm20.015 12.963 6.387 11.056h-6.926l-5.802-10.047h-13.674v10.047h-6.795v-29.703h20.32c7.639 0 12.729 3.362 12.729 9.851 0 4.465-2.346 7.381-6.239 8.796Z"/>
      <path fill="#0D2F49" d="m29.2314 20.8538 6.084 3.513c-2.817 4.168-8.524 7.524-16.246 7.524-11.159 0-18.414-5.898-18.414-15.784 0-9.886 7.255-15.784 18.711-15.784 7.354 0 13.022 3.334 15.786 7.366l-5.921 3.419c-2.122-3.31-5.537-4.929-9.95-4.929-7.043 0-11.71 3.394-11.71 9.929 0 6.534 4.667 9.928 11.71 9.928 4.413 0 7.743-1.787 9.95-5.181"/>
      <polygon fill="#D6B556" points="99.4696 43.4617 94.6656 56.5977 91.6066 56.5977 88.1546 46.6897 84.6636 56.5977 81.6426 56.5977 76.8376 43.4617 79.9906 43.4617 83.2186 53.1827 86.7276 43.4617 89.6366 43.4617 93.1266 53.1827 96.3726 43.4617"/>
      <polygon fill="#D6B556" points="120.1474 54.0833 120.1474 56.5973 106.6174 56.5973 106.6174 43.4613 119.9604 43.4613 119.9604 45.9763 109.6014 45.9763 109.6014 48.6783 118.2514 48.6783 118.2514 51.1933 109.6014 51.1933 109.6014 54.0833"/>
      <path fill="#D6B556" d="M137.9843 51.3807 135.2633 46.0327 132.5423 51.3807h5.442Zm1.258 2.44h-7.939l-1.407 2.777h-3.209l6.962-13.136h3.285l6.961 13.136h-3.246l-1.407-2.777Z"/>
      <polygon fill="#D6B556" points="163.1874 54.0081 163.1874 56.5971 150.8964 56.5971 150.8964 43.4621 153.8984 43.4621 153.8984 54.0081"/>
      <polygon fill="#D6B556" points="181.1474 46.0511 175.4044 46.0511 175.4044 56.5971 172.4014 56.5971 172.4014 46.0511 166.6974 46.0511 166.6974 43.4621 181.1474 43.4621"/>
      <polygon fill="#D6B556" points="203.2304 43.4617 203.2304 56.5977 200.2284 56.5977 200.2284 51.2497 191.2764 51.2497 191.2764 56.5977 188.2744 56.5977 188.2744 43.4617 191.2764 43.4617 191.2764 48.6227 200.2284 48.6227 200.2284 43.4617"/>
    </g>
  </g>
</svg>
